<svg width="119" height="40" viewBox="0 0 119 40" fill="none" xmlns="http://www.w3.org/2000/svg">
<path d="M7.992 5.73599V32.76H20.952L20.136 39H0.119995V5.73599H7.992Z" fill="#0A0B0C"/>
<path d="M7.992 5.73599V32.76H20.952L20.136 39H0.119995V5.73599H7.992Z" fill="black" fill-opacity="0.2"/>
<path d="M45.3862 39H38.8102L38.4742 35.784C36.6182 38.472 34.0422 39.816 30.7462 39.816C28.4102 39.816 26.6342 39.112 25.4182 37.704C24.2342 36.296 23.6422 34.328 23.6422 31.8V13.512H31.2262V30.84C31.2262 32.088 31.4182 32.968 31.8022 33.48C32.2182 33.96 32.8422 34.2 33.6742 34.2C35.2742 34.2 36.6502 33.208 37.8022 31.224V13.512H45.3862V39Z" fill="#0A0B0C"/>
<path d="M45.3862 39H38.8102L38.4742 35.784C36.6182 38.472 34.0422 39.816 30.7462 39.816C28.4102 39.816 26.6342 39.112 25.4182 37.704C24.2342 36.296 23.6422 34.328 23.6422 31.8V13.512H31.2262V30.84C31.2262 32.088 31.4182 32.968 31.8022 33.48C32.2182 33.96 32.8422 34.2 33.6742 34.2C35.2742 34.2 36.6502 33.208 37.8022 31.224V13.512H45.3862V39Z" fill="black" fill-opacity="0.2"/>
<path d="M58.935 13.512V39H51.351V13.512H58.935ZM55.095 0.071991C56.407 0.071991 57.479 0.487991 58.311 1.31999C59.175 2.11999 59.607 3.14399 59.607 4.39199C59.607 5.63999 59.175 6.67999 58.311 7.51199C57.479 8.31199 56.407 8.71199 55.095 8.71199C53.783 8.71199 52.711 8.31199 51.879 7.51199C51.047 6.67999 50.631 5.63999 50.631 4.39199C50.631 3.14399 51.047 2.11999 51.879 1.31999C52.711 0.487991 53.783 0.071991 55.095 0.071991Z" fill="#0A0B0C"/>
<path d="M58.935 13.512V39H51.351V13.512H58.935ZM55.095 0.071991C56.407 0.071991 57.479 0.487991 58.311 1.31999C59.175 2.11999 59.607 3.14399 59.607 4.39199C59.607 5.63999 59.175 6.67999 58.311 7.51199C57.479 8.31199 56.407 8.71199 55.095 8.71199C53.783 8.71199 52.711 8.31199 51.879 7.51199C51.047 6.67999 50.631 5.63999 50.631 4.39199C50.631 3.14399 51.047 2.11999 51.879 1.31999C52.711 0.487991 53.783 0.071991 55.095 0.071991Z" fill="black" fill-opacity="0.2"/>
<path d="M72.4819 13.512V39H64.8979V13.512H72.4819ZM68.6419 0.071991C69.9539 0.071991 71.0259 0.487991 71.8579 1.31999C72.7219 2.11999 73.1539 3.14399 73.1539 4.39199C73.1539 5.63999 72.7219 6.67999 71.8579 7.51199C71.0259 8.31199 69.9539 8.71199 68.6419 8.71199C67.3299 8.71199 66.2579 8.31199 65.4259 7.51199C64.5939 6.67999 64.1779 5.63999 64.1779 4.39199C64.1779 3.14399 64.5939 2.11999 65.4259 1.31999C66.2579 0.487991 67.3299 0.071991 68.6419 0.071991Z" fill="#0A0B0C"/>
<path d="M72.4819 13.512V39H64.8979V13.512H72.4819ZM68.6419 0.071991C69.9539 0.071991 71.0259 0.487991 71.8579 1.31999C72.7219 2.11999 73.1539 3.14399 73.1539 4.39199C73.1539 5.63999 72.7219 6.67999 71.8579 7.51199C71.0259 8.31199 69.9539 8.71199 68.6419 8.71199C67.3299 8.71199 66.2579 8.31199 65.4259 7.51199C64.5939 6.67999 64.1779 5.63999 64.1779 4.39199C64.1779 3.14399 64.5939 2.11999 65.4259 1.31999C66.2579 0.487991 67.3299 0.071991 68.6419 0.071991Z" fill="black" fill-opacity="0.2"/>
<path d="M96.3967 13.512V18.84L84.8767 33.24H96.6367L95.9647 39H76.0927V33.624L87.6607 19.224H77.1007V13.512H96.3967Z" fill="#0A0B0C"/>
<path d="M96.3967 13.512V18.84L84.8767 33.24H96.6367L95.9647 39H76.0927V33.624L87.6607 19.224H77.1007V13.512H96.3967Z" fill="black" fill-opacity="0.2"/>
<path d="M118.428 13.512V18.84L106.908 33.24H118.668L117.996 39H98.124V33.624L109.692 19.224H99.132V13.512H118.428Z" fill="#0A0B0C"/>
<path d="M118.428 13.512V18.84L106.908 33.24H118.668L117.996 39H98.124V33.624L109.692 19.224H99.132V13.512H118.428Z" fill="black" fill-opacity="0.2"/>
</svg>
